<?xml version="1.0" encoding="UTF-8"?>
<svg width="25px" height="14px" viewBox="0 0 25 14" version="1.1" xmlns="http://www.w3.org/2000/svg" xmlns:xlink="http://www.w3.org/1999/xlink">
    <!-- Generator: Sketch 63.1 (92452) - https://sketch.com -->
    <title>noun_Eye_3376711</title>
    <desc>Created with Sketch.</desc>
    <g id="Page-1" stroke="none" stroke-width="1" fill="none" fill-rule="evenodd">
        <g id="Tabless-Copy-17" transform="translate(-707.000000, -701.000000)" fill="#FFFFFF" fill-rule="nonzero">
            <g id="noun_Eye_3376711" transform="translate(707.000000, 701.000000)">
                <g id="Group">
                    <path d="M12.4137931,0 C16.6516772,0.000889686 20.88644,1.95475291 24.1176295,5.86159001 L24.8275862,6.72 L24.1176295,7.57840999 C17.6537791,15.3938634 7.17380706,15.3938634 0.709956745,7.57840999 L0,6.72 L0.709956745,5.86159001 C3.9418819,1.95386335 8.1778375,0 12.4137931,0 L12.4137931,0 Z M12.4559529,1.68 L12.3715058,1.68017896 C9.64859632,1.70323327 7.44827586,3.9508061 7.44827586,6.72 C7.44827586,9.50351514 9.67141366,11.76 12.4137931,11.76 L12.3507898,11.7598365 C12.3928824,11.76 12.4349756,11.76 12.4770683,11.7598351 C15.1902431,11.7252537 17.3793103,9.4821035 17.3793103,6.72 C17.3793103,3.93648486 15.1561726,1.68 12.4137931,1.68 L12.4559529,1.68 L12.4559529,1.68 Z M17.9094536,2.9722103 L17.9375418,3.01402256 C18.6307723,4.07637363 19.0344828,5.3503338 19.0344828,6.72 C19.0344828,8.10784838 18.6199828,9.39743297 17.9097813,10.4681732 C19.5572861,9.66195195 21.1128667,8.47921675 22.4899018,6.919584 L22.6633775,6.72 L22.4899018,6.520416 C21.1128667,4.96078325 19.5572861,3.77804805 17.9094536,2.9722103 Z M6.91752579,2.97224764 L6.7260005,3.06809181 C5.08011509,3.90602528 3.53046977,5.123328 2.16420873,6.72 C3.58339639,8.37852435 5.2004515,9.62771788 6.91770505,10.4675806 C6.20749486,9.39709504 5.79310345,8.10766656 5.79310345,6.72 C5.79310345,5.33233344 6.20749486,4.04290496 6.91752579,2.97224764 Z M12.4137931,3.78 C12.6584441,3.78 12.8960108,3.81078608 13.1229381,3.8687497 C12.4698333,4.09379926 12,4.72120887 12,5.46 C12,6.38783838 12.7410459,7.14 13.6551724,7.14 C14.3830454,7.14 15.001183,6.66311919 15.2228573,6.00038636 C15.2800137,6.23054905 15.3103448,6.47167928 15.3103448,6.72 C15.3103448,8.34371714 14.0135144,9.66 12.4137931,9.66 C10.8140718,9.66 9.51724138,8.34371714 9.51724138,6.72 C9.51724138,5.09628286 10.8140718,3.78 12.4137931,3.78 Z" id="Shape"></path>
                </g>
            </g>
        </g>
    </g>
</svg>